<?xml version="1.0" encoding="utf-8" standalone="no"?>
<!DOCTYPE svg PUBLIC "-//W3C//DTD SVG 1.1//EN"
  "http://www.w3.org/Graphics/SVG/1.1/DTD/svg11.dtd">
<svg xmlns:xlink="http://www.w3.org/1999/xlink" width="337.8pt" height="280.2pt" viewBox="0 0 337.8 280.2" xmlns="http://www.w3.org/2000/svg" version="1.1">
 <metadata>
  <rdf:RDF xmlns:dc="http://purl.org/dc/elements/1.1/" xmlns:cc="http://creativecommons.org/ns#" xmlns:rdf="http://www.w3.org/1999/02/22-rdf-syntax-ns#">
   <cc:Work>
    <dc:type rdf:resource="http://purl.org/dc/dcmitype/StillImage"/>
    <dc:date>2026-07-29T11:21:11.893091</dc:date>
    <dc:format>image/svg+xml</dc:format>
    <dc:creator>
     <cc:Agent>
      <dc:title>Matplotlib v3.11.1, https://matplotlib.org/</dc:title>
     </cc:Agent>
    </dc:creator>
   </cc:Work>
  </rdf:RDF>
 </metadata>
 <defs>
  <style type="text/css">*{stroke-linejoin: round; stroke-linecap: butt}</style>
 </defs>
 <g id="figure_1">
  <g id="patch_1">
   <path d="M 0 280.2 
L 337.8 280.2 
L 337.8 0 
L 0 0 
z
" style="fill: #ffffff"/>
  </g>
  <g id="axes_1">
   <g id="patch_2">
    <path d="M 0 280.2 
L 334.8 280.2 
L 334.8 3 
L 0 3 
z
" style="fill: #ffffff"/>
   </g>
   <g id="matplotlib.axis_1">
    <g id="text_1">
     <!-- $x$ -->
     <g transform="translate(328.8 237.35375) scale(0.1 -0.1)">
      <defs>
       <path id="DejaVuSans-Oblique-5b" d="M 3841 3500 
L 2234 1784 
L 3219 0 
L 2559 0 
L 1819 1388 
L 531 0 
L -166 0 
L 1556 1844 
L 641 3500 
L 1300 3500 
L 1972 2234 
L 3144 3500 
L 3841 3500 
z
" transform="scale(0.015625)"/>
      </defs>
      <use xlink:href="#DejaVuSans-Oblique-5b" transform="translate(0 0.3125)"/>
     </g>
    </g>
   </g>
   <g id="matplotlib.axis_2">
    <g id="text_2">
     <!-- $y$ -->
     <g transform="translate(127.82 9) rotate(-90) scale(0.1 -0.1)">
      <defs>
       <path id="DejaVuSans-Oblique-5c" d="M 1588 -325 
Q 1188 -997 936 -1164 
Q 684 -1331 294 -1331 
L -159 -1331 
L -63 -850 
L 269 -850 
Q 509 -850 678 -719 
Q 847 -588 1056 -206 
L 1234 128 
L 459 3500 
L 1069 3500 
L 1650 819 
L 3256 3500 
L 3859 3500 
L 1588 -325 
z
" transform="scale(0.015625)"/>
      </defs>
      <use xlink:href="#DejaVuSans-Oblique-5c" transform="translate(0 0.3125)"/>
     </g>
    </g>
   </g>
   <g id="line2d_1">
    <path d="M 99.836104 281.2 
L 270.255584 -1 
L 270.255584 -1 
" clip-path="url(#p4ed06eb349)" style="fill: none; stroke: #1f77b4; stroke-width: 1.6; stroke-linecap: square"/>
   </g>
   <g id="line2d_2">
    <path d="M 0 197.04 
L 334.8 58.44 
L 334.8 58.44 
" clip-path="url(#p4ed06eb349)" style="fill: none; stroke: #ff7f0e; stroke-width: 1.6; stroke-linecap: square"/>
   </g>
   <g id="line2d_3">
    <defs>
     <path id="m8d8a75baac" d="M 3 0 
L -3 -3 
L -3 3 
z
" style="stroke: #000000; stroke-linejoin: miter"/>
    </defs>
    <g>
     <use xlink:href="#m8d8a75baac" x="334.8" y="224.76" style="stroke: #000000; stroke-linejoin: miter"/>
    </g>
   </g>
   <g id="line2d_4">
    <defs>
     <path id="m9c3b011958" d="M 0 -3 
L -3 3 
L 3 3 
z
" style="stroke: #000000; stroke-linejoin: miter"/>
    </defs>
    <g>
     <use xlink:href="#m9c3b011958" x="133.92" y="3" style="stroke: #000000; stroke-linejoin: miter"/>
    </g>
   </g>
   <g id="patch_3">
    <path d="M 133.92 280.2 
L 133.92 3 
" style="fill: none; stroke: #000000; stroke-width: 0.8; stroke-linejoin: miter; stroke-linecap: square"/>
   </g>
   <g id="patch_4">
    <path d="M 334.8 280.2 
L 334.8 3 
" style="fill: none"/>
   </g>
   <g id="patch_5">
    <path d="M 0 224.76 
L 334.8 224.76 
" style="fill: none; stroke: #000000; stroke-width: 0.8; stroke-linejoin: miter; stroke-linecap: square"/>
   </g>
   <g id="patch_6">
    <path d="M 0 3 
L 334.8 3 
" style="fill: none"/>
   </g>
   <g id="PathCollection_1">
    <defs>
     <path id="m6c9141666a" d="M 0 2.95804 
C 0.784481 2.95804 1.536938 2.646362 2.09165 2.09165 
C 2.646362 1.536938 2.95804 0.784481 2.95804 0 
C 2.95804 -0.784481 2.646362 -1.536938 2.09165 -2.09165 
C 1.536938 -2.646362 0.784481 -2.95804 0 -2.95804 
C -0.784481 -2.95804 -1.536938 -2.646362 -2.09165 -2.09165 
C -2.646362 -1.536938 -2.95804 -0.784481 -2.95804 0 
C -2.95804 0.784481 -2.646362 1.536938 -2.09165 2.09165 
C -1.536938 2.646362 -0.784481 2.95804 0 2.95804 
z
" style="stroke: #ff0000"/>
    </defs>
    <g clip-path="url(#p4ed06eb349)">
     <use xlink:href="#m6c9141666a" x="200.88" y="113.88" style="fill: #ff0000; stroke: #ff0000"/>
    </g>
   </g>
  </g>
 </g>
 <defs>
  <clipPath id="p4ed06eb349">
   <rect x="0" y="3" width="334.8" height="277.2"/>
  </clipPath>
 </defs>
</svg>
